<svg xmlns="http://www.w3.org/2000/svg" viewBox="0 0 165.9 165.5"><g stroke-width="2" stroke-miterlimit="10" class="logo__svg" style="stroke: rgb(255, 255, 255); fill: rgb(52, 57, 68);"><path d="M84.5 1.6c44 1 79.4 37 79.4 81.2 0 44.9-36.4 81.3-81.3 81.3h-1.8c-38.9-1-70.1-32.8-70.1-72s31.4-71.1 70.4-72c-33.9.9-61.2 28.6-61.2 62.7 0 34.6 28.1 62.7 62.7 62.7h1.6c39-.9 70.4-32.8 70.4-72 .1-39.1-31.2-70.9-70.1-71.9z"></path> <path d="M84.5 1.6c38.9 1 70.1 32.8 70.1 72s-31.4 71.1-70.4 72c33.9-.9 61.1-28.6 61.1-62.7 0-34.6-28.1-62.7-62.7-62.7H81c-39 .9-70.4 32.8-70.4 72 0 39.1 31.2 71 70.1 72-44-1-79.4-37-79.4-81.2 0-44.9 36.4-81.3 81.3-81.3h.9c.4-.1.7-.1 1-.1z"></path></g></svg>